PathFileType  4	(X/Y/Z) C:\Users\antoi\Documents\MyRepositories\mobilecap\ResultsAnalysis
DataRate	CameraRate	NumFrames	NumMarkers	Units	OrigDataRate	OrigDataStartFrame	OrigNumFrames
100.0	100.0	4	51	mm	100.0	35	138
Frame#	Time	r_knee			r_shank_antsup			r_ankle			r_calc			r_5meta			r_toe			L_knee			L_shank_antsup			L_ankle			L_calc			L_5meta			L_toe			r_sh2			r_sh3			r_sh4			L_sh2			L_sh3			r_thigh1			r_thigh2			r_thigh3			r_thigh4			r_thigh5			L_thigh1			L_thigh2			L_thigh3			L_thigh4			r.ASIS			r.PSIS			L.ASIS			L.PSIS			C7			R_Shoulder			L_Shoulder			R_Sternum			L_Sternum			R_humerus			R_elbow_med			R_elbow_lat			R_forearm			R_wrist_radius			R_wrist_ulna			L_humerus			L_elbow_med			L_elbow_lat			L_forearm			L_wrist_radius			L_wrist_ulna			R_HJC			L_HJC			R_HJC_reg			L_HJC_reg			
		X1	Y1	Z1	X2	Y2	Z2	X3	Y3	Z3	X4	Y4	Z4	X5	Y5	Z5	X6	Y6	Z6	X7	Y7	Z7	X8	Y8	Z8	X9	Y9	Z9	X10	Y10	Z10	X11	Y11	Z11	X12	Y12	Z12	X13	Y13	Z13	X14	Y14	Z14	X15	Y15	Z15	X16	Y16	Z16	X17	Y17	Z17	X18	Y18	Z18	X19	Y19	Z19	X20	Y20	Z20	X21	Y21	Z21	X22	Y22	Z22	X23	Y23	Z23	X24	Y24	Z24	X25	Y25	Z25	X26	Y26	Z26	X27	Y27	Z27	X28	Y28	Z28	X29	Y29	Z29	X30	Y30	Z30	X31	Y31	Z31	X32	Y32	Z32	X33	Y33	Z33	X34	Y34	Z34	X35	Y35	Z35	X36	Y36	Z36	X37	Y37	Z37	X38	Y38	Z38	X39	Y39	Z39	X40	Y40	Z40	X41	Y41	Z41	X42	Y42	Z42	X43	Y43	Z43	X44	Y44	Z44	X45	Y45	Z45	X46	Y46	Z46	X47	Y47	Z47	X48	Y48	Z48	X49	Y49	Z49	X50	Y50	Z50	X51	Y51	Z51	

35	0.34000000	391.87279	492.85319	-43.32800	421.56955	421.46917	-67.47415	315.75476	97.12911	-96.02858	243.91081	68.63851	-133.33929	418.63143	40.22905	-66.52646	467.37845	66.47369	-124.47095	606.30815	535.56125	-314.20938	619.40395	438.22265	-320.64708	481.59737	157.84693	-290.76665	411.06073	140.15298	-237.12324	564.26280	61.80053	-329.15058	614.24449	81.12739	-283.75892	387.18723	309.84639	-53.16129	346.86793	439.52467	-31.07346	314.82366	332.87039	-38.69009	535.44638	471.28007	-316.21891	501.45452	353.71419	-319.93870	484.36711	802.92645	9.26331	468.74813	693.72627	-3.38254	413.07077	673.29597	19.24130	372.04935	810.50804	34.49802	361.13294	695.88685	9.48907	520.02689	788.44000	-351.43525	588.98780	670.81526	-334.15682	421.39839	734.06748	-311.04021	497.95361	615.18323	-300.99225	502.98281	976.54080	-23.28305	310.15906	1014.61134	-99.79260	504.56327	963.29492	-274.13564	300.92525	1015.40796	-200.28751	310.79654	1424.05934	-157.04679	435.52448	1393.77226	5.59949	366.29838	1385.85048	-345.09477	453.66139	1392.55409	-155.98708	448.70585	1394.31137	-197.81506	473.50206	1261.81748	63.06576	439.01427	1043.98018	39.62310	473.95836	1063.26025	96.50761	579.91150	969.65233	80.78642	656.19935	856.83912	62.93876	639.35509	841.64639	92.26320	362.86296	1266.81183	-400.09790	311.58746	1044.34397	-312.34154	310.63092	1059.78127	-390.63628	353.16833	952.85987	-411.07826	343.01963	793.26847	-427.35590	313.79331	801.58321	-444.21673	424.64812	896.77149	-44.06945	422.34405	891.28271	-250.45378	437.69333	896.25814	-52.64096	422.52318	897.56670	-217.73468	
36	0.35000000	395.03527	492.81260	-43.57776	424.09290	421.23684	-67.58749	315.95965	97.40164	-96.19052	244.14944	68.83716	-133.40952	418.68295	40.25843	-66.44004	467.58598	66.47955	-124.27404	616.73789	534.50925	-312.89725	634.90285	438.12608	-319.49960	515.48945	148.73232	-290.57918	446.26689	126.84499	-237.02478	604.05479	57.76782	-328.62418	652.64489	80.36967	-283.20537	388.82943	309.88625	-53.31785	349.45946	439.86309	-31.45480	316.52595	333.53820	-38.99157	548.70527	465.64804	-315.91335	522.89189	345.99404	-320.08700	491.53508	801.62395	9.25723	474.71127	692.64841	-3.70846	418.72472	672.95696	18.66246	379.55943	810.54060	34.04167	367.22850	696.17375	8.77013	531.49055	787.97707	-350.99363	599.74408	670.08512	-332.70749	432.31696	733.81395	-312.25528	508.26828	614.61231	-301.33434	512.35229	975.53860	-23.05623	319.97551	1014.18370	-101.04639	515.27240	962.71453	-273.75188	311.38631	1015.10233	-201.57193	321.18943	1423.46076	-157.31956	445.43109	1392.97915	5.58711	376.84916	1385.64274	-345.15569	464.08036	1391.83735	-155.97502	459.21769	1393.62905	-197.85597	483.59957	1261.04220	62.98629	451.04563	1042.87785	38.85732	485.59961	1062.37103	95.60418	592.67551	970.03339	79.28292	670.32597	858.42296	60.53673	653.74496	842.64838	89.67130	370.50870	1267.02564	-399.98790	315.78983	1045.65221	-311.24359	313.30695	1061.32821	-389.26363	352.37959	953.42785	-411.06404	337.12718	794.12682	-427.25612	307.63559	803.40770	-443.56908	433.79531	896.01687	-44.53631	432.91754	890.79286	-250.93916	446.94346	895.58487	-52.88817	432.83696	897.09334	-217.96470	
37	0.36000000	398.26961	492.74525	-43.79323	426.66927	420.97789	-67.65728	316.21781	97.64341	-96.39084	244.40808	69.08504	-133.45956	418.73027	40.30269	-66.32852	467.78076	66.42726	-124.10626	626.14818	532.81707	-311.56110	649.42666	437.93430	-318.28106	549.64944	140.57253	-290.34073	482.06444	114.52801	-236.84003	643.91270	55.12868	-328.03289	690.89058	80.97902	-282.60763	390.57468	309.92302	-53.39876	352.10807	440.18867	-31.79154	318.29382	334.17821	-39.28317	561.35816	459.66601	-315.28705	543.92901	338.43648	-320.03197	498.89632	800.26728	9.13330	480.63552	691.55522	-3.83713	424.49570	672.59651	18.16448	387.27453	810.49557	33.56365	373.48337	696.39037	8.13990	542.45395	786.95498	-350.53030	609.70918	668.63845	-331.26217	442.65708	733.36279	-313.20606	517.61965	613.57898	-301.43537	521.86662	974.38569	-22.99812	329.92891	1013.66810	-102.31442	525.98801	961.89735	-273.49460	321.95553	1014.59643	-202.87004	331.58941	1422.68938	-157.66774	455.35076	1391.98002	5.51239	387.50649	1385.27083	-345.30405	474.53871	1390.92864	-156.03761	469.80050	1392.75780	-197.97504	493.69443	1260.05054	62.77273	462.92871	1041.62742	37.97267	497.16267	1061.26508	94.70400	605.28156	970.18961	77.77171	684.26069	859.76736	58.15765	667.90440	843.44910	87.11216	378.42323	1267.15378	-399.96759	319.99645	1046.96029	-310.31835	316.16520	1062.89964	-388.06018	351.83546	954.16225	-411.03828	331.83476	795.25234	-427.07055	302.18349	805.46688	-442.82185	443.08254	895.13335	-45.06290	443.49855	890.08688	-251.47263	456.25210	894.89113	-53.19428	443.16416	896.41488	-218.22347	
38	0.37000000	401.59664	492.65658	-43.97186	429.31756	420.69063	-67.68940	316.52381	97.89803	-96.60115	244.66085	69.39387	-133.50090	418.76834	40.33571	-66.21500	467.95791	66.31531	-123.96687	634.56234	530.48309	-310.23760	662.92107	437.63896	-317.02993	583.84873	133.57976	-290.03027	518.17810	103.42794	-236.61163	683.56076	54.16094	-327.38271	728.65812	83.19391	-281.94629	392.39988	309.94155	-53.41200	354.82728	440.50911	-32.07439	320.14542	334.79100	-39.54928	573.42932	453.42820	-314.26736	564.40878	331.18216	-319.65446	506.43952	798.84657	8.90852	486.52576	690.43910	-3.84028	430.37829	672.21927	17.75757	395.19236	810.38028	33.04898	379.87347	696.52860	7.60316	552.84958	785.36801	-350.06367	618.84507	666.47149	-329.90261	452.34930	732.63358	-313.80863	526.01886	612.07692	-301.32992	531.54553	973.10088	-23.11517	340.02901	1013.05882	-103.58611	536.74003	960.83389	-273.39261	332.63618	1013.89268	-204.16826	341.98118	1421.75848	-158.09607	465.29575	1390.78793	5.36292	398.26952	1384.72724	-345.54343	485.03250	1389.85113	-156.18572	480.44404	1391.72531	-198.17801	503.79036	1258.85740	62.44923	474.66723	1040.24492	36.96460	508.61889	1059.96233	93.77666	617.71890	970.13084	76.25233	697.98400	860.87435	55.80423	681.83982	844.05963	84.58741	386.62166	1267.16943	-400.07500	324.26299	1048.26690	-309.55583	319.27622	1064.47374	-387.04417	351.62812	955.02225	-411.00485	327.26600	796.61655	-426.84520	297.47584	807.69285	-442.00391	452.53754	894.12986	-45.64593	454.09920	889.16104	-252.05336	465.65723	894.15610	-53.57240	453.53049	895.52410	-218.53813	
